<?xml version="1.0" encoding="UTF-8"?>
<svg width="102px" height="51px" viewBox="0 0 102 51" version="1.1" xmlns="http://www.w3.org/2000/svg" xmlns:xlink="http://www.w3.org/1999/xlink">
    <title>Group 2</title>
    <g id="Page-1" stroke="none" stroke-width="1" fill="none" fill-rule="evenodd">
        <g id="Artboard" transform="translate(-224.000000, -184.000000)">
            <g id="Group-2" transform="translate(224.000000, 185.000000)">
                <text id="GO4LUNCH" font-family="NexaBlack, Nexa Black" font-size="17" font-weight="800" fill="#FFC100">
                    <tspan x="0" y="43">GO4LUNCH</tspan>
                </text>
                <g id="Group" transform="translate(31.000000, 0.000000)" stroke-linecap="round" stroke-linejoin="round" stroke-width="1.5">
                    <g transform="translate(7.000000, -0.000000)" id="Path">
                        <path d="M0,13.4765625 L0.6368125,13.4765625 L0.63825,13.4765625 C1.129875,13.4765625 1.6200625,13.296875 1.99525,12.9375 L1.99525,12.9375 L1.99525,12.9375 C2.7441875,12.21875 3.9603125,12.21875 4.70925,12.9375 L4.70925,12.9375 L4.70925,12.9375 C5.4581875,13.65625 6.6743125,13.65625 7.42325,12.9375 L7.42325,12.9375 L7.42325,12.9375 C8.1721875,12.21875 9.3883125,12.21875 10.13725,12.9375 L10.13725,12.9375 L10.13725,12.9375 C10.8861875,13.65625 12.1023125,13.65625 12.85125,12.9375 L12.85125,12.9375 L12.85125,12.9375 C13.6001875,12.21875 14.8163125,12.21875 15.56525,12.9375 L15.56525,12.9375 L15.56525,12.9375 C16.3141875,13.65625 17.5303125,13.65625 18.27925,12.9375 L18.27925,12.9375 L18.27925,12.9375 C19.0281875,12.21875 20.2443125,12.21875 20.99325,12.9375 L20.99325,12.9375 L20.99325,12.9375 C21.3684375,13.296875 21.858625,13.4765625 22.35025,13.4765625 L22.9885,13.4765625" stroke="#FB355D"></path>
                        <path d="M11.55175,8.625 L2.3474375,8.625 C1.8011875,8.625 1.2765,8.4079375 0.8898125,8.02125 L0.8898125,8.02125 C-0.322,6.8094375 -0.2113125,4.8141875 1.1255625,3.74325 L1.3325625,3.5779375 C4.2248125,1.262125 7.82,0 11.5244375,0 L11.5244375,0 L11.5244375,0 C15.228875,0 18.822625,1.262125 21.714875,3.5779375 L21.921875,3.74325 C23.25875,4.8141875 23.3694375,6.8094375 22.157625,8.02125 L22.157625,8.02125 C21.7709375,8.4079375 21.2476875,8.625 20.7,8.625 L11.4956875,8.625" stroke="#323232"></path>
                        <path d="M-3.83026943e-15,18.6875 L-3.83026943e-15,18.6875 C-3.83026943e-15,17.894 0.644,17.25 1.4375,17.25 L21.5553125,17.25 C22.3488125,17.25 22.9928125,17.894 22.9928125,18.6875 L22.9928125,18.6875 C22.9928125,19.6319375 22.772875,20.564875 22.35025,21.410125 L22.35025,21.410125 C21.8615,22.38475 20.86675,23 19.7785625,23 L3.2128125,23 C2.124625,23 1.129875,22.38475 0.6425625,21.4115625 L0.6425625,21.4115625 C0.2199375,20.564875 -3.83026943e-15,19.633375 -3.83026943e-15,18.6875 Z" stroke="#323232"></path>
                    </g>
                </g>
            </g>
        </g>
    </g>
</svg>